Coordinates
version=1
nRows=60
nColumns=12
inDegrees=yes

Units are S.I. units (second, meters, Newtons, ...)
Angles are in degrees

endheader
time	SC_y	SC_z	SC_x	AC_y	AC_z	AC_x	GH_y	GH_z	GH_yy	EL_x	PS_y
       0.0              -59.81          29.99          65.61          30.66         -9.176         -2.084         -49.38          32.38         -56.98          12.85          76.69
  0.002374              -59.81          29.99          65.61          30.67         -9.177         -2.085         -49.37          32.39         -56.97          12.85           76.7
  0.004749               -59.8          29.99          65.61          30.67         -9.179         -2.086         -49.36           32.4         -56.95          12.85          76.71
  0.007123               -59.8          29.99          65.61          30.67          -9.18         -2.087         -49.36           32.4         -56.94          12.85          76.72
  0.009497              -59.79          29.99          65.61          30.68         -9.182         -2.088         -49.35          32.41         -56.92          12.85          76.73
   0.01187              -59.78          29.98          65.61          30.68         -9.183          -2.09         -49.33          32.42         -56.91          12.85          76.74
   0.01425              -59.78          29.98          65.61          30.68         -9.185         -2.091         -49.32          32.43         -56.89          12.85          76.75
   0.01662              -59.77          29.98           65.6          30.69         -9.187         -2.092         -49.31          32.44         -56.87          12.85          76.77
   0.01899              -59.76          29.98           65.6          30.69         -9.189         -2.094          -49.3          32.45         -56.85          12.85          76.78
   0.02137              -59.75          29.97           65.6           30.7         -9.191         -2.096         -49.28          32.46         -56.83          12.84          76.79
   0.02374              -59.74          29.97           65.6           30.7         -9.194         -2.098         -49.27          32.47         -56.81          12.84          76.81
   0.02612              -59.73          29.97           65.6          30.71         -9.196           -2.1         -49.25          32.48         -56.78          12.84          76.82
   0.02849              -59.72          29.96           65.6          30.72         -9.199         -2.102         -49.23          32.49         -56.76          12.84          76.84
   0.03087              -59.71          29.96           65.6          30.72         -9.202         -2.104         -49.22          32.51         -56.73          12.84          76.86
   0.03324               -59.7          29.96           65.6          30.73         -9.205         -2.106          -49.2          32.52          -56.7          12.84          76.88
   0.03561              -59.68          29.95          65.59          30.74         -9.209         -2.109         -49.17          32.54         -56.67          12.83           76.9
   0.03799              -59.67          29.95          65.59          30.75         -9.213         -2.112         -49.15          32.55         -56.63          12.83          76.93
   0.04036              -59.65          29.94          65.59          30.76         -9.217         -2.115         -49.12          32.57         -56.59          12.83          76.96
   0.04274              -59.64          29.94          65.59          30.77         -9.221         -2.119         -49.09          32.59         -56.55          12.83          76.99
   0.04511              -59.62          29.93          65.58          30.78         -9.226         -2.122         -49.06          32.62          -56.5          12.83          77.02
   0.04749              -59.59          29.92          65.58          30.79         -9.231         -2.126         -49.03          32.64         -56.45          12.82          77.05
   0.04986              -59.57          29.91          65.58          30.81         -9.237         -2.131         -48.99          32.67         -56.39          12.82          77.09
   0.05223              -59.55          29.91          65.58          30.82         -9.244         -2.136         -48.95           32.7         -56.33          12.82          77.13
   0.05461              -59.52           29.9          65.57          30.84         -9.251         -2.142          -48.9          32.73         -56.26          12.81          77.18
   0.05698              -59.49          29.89          65.57          30.86         -9.259         -2.148         -48.85          32.77         -56.18          12.81          77.23
   0.05936              -59.45          29.87          65.56          30.88         -9.269         -2.155         -48.79          32.81          -56.1           12.8          77.29
   0.06173              -59.41          29.86          65.56           30.9         -9.279         -2.162         -48.73          32.86          -56.0           12.8          77.36
    0.0641              -59.37          29.85          65.55          30.93          -9.29         -2.171         -48.65          32.91         -55.89          12.79          77.43
   0.06648              -59.32          29.83          65.55          30.96         -9.303         -2.181         -48.57          32.97         -55.77          12.78          77.51
   0.06885              -59.26          29.81          65.54           31.0         -9.318         -2.192         -48.48          33.04         -55.63          12.77          77.61
   0.07123              -59.19          29.79          65.53          31.04         -9.334         -2.205         -48.37          33.12         -55.47          12.77          77.71
    0.0736              -59.12          29.76          65.52          31.08         -9.354          -2.22         -48.25          33.21         -55.29          12.75          77.84
   0.07598              -59.03          29.74          65.51          31.13         -9.376         -2.237         -48.11          33.31         -55.08          12.74          77.98
   0.07835              -58.93           29.7           65.5          31.19         -9.401         -2.256         -47.94          33.43         -54.83          12.73          78.15
   0.08072              -58.82          29.66          65.48          31.27         -9.431         -2.279         -47.75          33.57         -54.54          12.71          78.34
    0.0831              -58.68          29.62          65.47          31.35         -9.467         -2.306         -47.53          33.73         -54.21          12.69          78.57
   0.08547              -58.51          29.56          65.45          31.45         -9.509         -2.339         -47.26          33.92          -53.8          12.67          78.84
   0.08785              -58.32           29.5          65.42          31.57          -9.56         -2.377         -46.94          34.16         -53.32          12.64          79.17
   0.09022              -58.08          29.42          65.39          31.71         -9.621         -2.424         -46.55          34.44         -52.74          12.61          79.56
    0.0926              -57.79          29.32          65.35          31.89         -9.696         -2.481         -46.07          34.79         -52.03          12.57          80.04
   0.09497              -57.43           29.2          65.31          32.11         -9.788         -2.552         -45.48          35.21         -51.15          12.51          80.64
   0.09734              -56.98          29.06          65.25          32.38         -9.903          -2.64         -44.75          35.74         -50.06          12.45          81.38
   0.09972              -56.42          28.87          65.18          32.72         -10.05          -2.75         -43.82          36.41         -48.68          12.37          82.31
    0.1021               -55.7          28.63          65.09          33.16         -10.23         -2.891         -42.65          37.26         -46.92          12.27           83.5
    0.1045              -54.78          28.33          64.98          33.72         -10.47         -3.071         -41.15          38.35         -44.68          12.14          85.01
    0.1068               -53.6          27.93          64.83          34.43         -10.77         -3.303         -39.22          39.75          -41.8          11.97          86.96
    0.1092               -52.1          27.44          64.64          35.34         -11.16         -3.598         -36.76          41.53         -38.12          11.76          89.45
    0.1116              -50.21          26.81           64.4          36.49         -11.64         -3.969         -33.66          43.78         -33.49          11.49          92.58
     0.114               -47.9          26.04          64.11          37.89         -12.23         -4.422         -29.89          46.51         -27.86          11.16          96.39
    0.1163              -45.23          25.16          63.77          39.51         -12.92         -4.946         -25.51          49.68         -21.32          10.79          100.8
    0.1187              -42.34           24.2          63.41          41.27         -13.66         -5.514         -20.78          53.12         -14.25          10.38          105.6
    0.1211              -39.44          23.24          63.04          43.03         -14.41         -6.082         -16.04          56.55         -7.174          9.966          110.4
    0.1235              -36.77          22.35          62.71          44.65         -15.09         -6.607         -11.66          59.72        -0.6395          9.587          114.8
    0.1258              -34.47          21.58          62.42          46.05         -15.68          -7.06          -7.89          62.46          4.998          9.261          118.6
    0.1282              -32.57          20.96          62.18           47.2         -16.17         -7.431         -4.793           64.7          9.623          8.992          121.8
    0.1306              -31.07          20.46          61.99          48.11         -16.56         -7.726          -2.33          66.49           13.3          8.779          124.2
     0.133              -29.89          20.07          61.84          48.82         -16.86         -7.958        -0.4023          67.88          16.18          8.612          126.2
    0.1353              -28.97          19.76          61.72          49.38         -17.09         -8.138            1.1          68.97          18.43          8.482          127.7
    0.1377              -28.26          19.52          61.63          49.82         -17.28         -8.278          2.274          69.82          20.18          8.381          128.9
    0.1401              -27.69          19.34          61.56          50.16         -17.42         -8.389          3.198          70.49          21.56          8.301          129.8
